PathFileType	4	(X/Y/Z)	/Users/itak/Documents/Research/Walk-IL/dataset/trc/00175_00008.trc
DataRate	CameraRate	NumFrames	NumMarkers	Units	OrigDataRate	OrigDataStartFrame	OrigNumFrames
100.000000	100.000000	4	53	mm	100.000000	0	589
Frame#	Time	RPSI			LPSI			L3			STRN			T10			C7			CLAV			RBAK			LBAK			LSHO			LUPA			LAEL			LAOL			LWTS			LWPS			LFRA			LIFD			LHPS			LHTS			RSHO			RUPA			RAEL			RAOL			RWTS			RWPS			RFRA			RIFD			RHTS			RHPS			RBHD			LFHD			RFHD			LBHD			LHIP			RHIP			RASI			LASI			LKNE			LTHI			LANK			LTIP			LTOE			LMT1			LMT5			LHEE			RKNE			RTHI			RANK			RTIP			RTOE			RMT1			RMT5			RHEE			
		X1	Y1	Z1	X2	Y2	Z2	X3	Y3	Z3	X4	Y4	Z4	X5	Y5	Z5	X6	Y6	Z6	X7	Y7	Z7	X8	Y8	Z8	X9	Y9	Z9	X10	Y10	Z10	X11	Y11	Z11	X12	Y12	Z12	X13	Y13	Z13	X14	Y14	Z14	X15	Y15	Z15	X16	Y16	Z16	X17	Y17	Z17	X18	Y18	Z18	X19	Y19	Z19	X20	Y20	Z20	X21	Y21	Z21	X22	Y22	Z22	X23	Y23	Z23	X24	Y24	Z24	X25	Y25	Z25	X26	Y26	Z26	X27	Y27	Z27	X28	Y28	Z28	X29	Y29	Z29	X30	Y30	Z30	X31	Y31	Z31	X32	Y32	Z32	X33	Y33	Z33	X34	Y34	Z34	X35	Y35	Z35	X36	Y36	Z36	X37	Y37	Z37	X38	Y38	Z38	X39	Y39	Z39	X40	Y40	Z40	X41	Y41	Z41	X42	Y42	Z42	X43	Y43	Z43	X44	Y44	Z44	X45	Y45	Z45	X46	Y46	Z46	X47	Y47	Z47	X48	Y48	Z48	X49	Y49	Z49	X50	Y50	Z50	X51	Y51	Z51	X52	Y52	Z52	X53	Y53	Z53	

1	0	853.151123046875	1050.036743164062	232.4969482421875	853.9837036132812	1047.332275390625	108.1780395507812	854.9505615234375	1086.1845703125	172.2639923095703	1106.060546875	1300.615966796875	155.4835662841797	817.4251708984375	1239.36328125	167.9388275146484	869.2188720703125	1512.469970703125	150.6755676269531	1073.094604492188	1412.533447265625	146.1853332519531	815.4061279296875	1335.627197265625	264.451904296875	858.6135864257812	1485.493774414062	51.18593597412109	931.7803955078125	1473.902099609375	-31.13290023803711	901.4889526367188	1338.51513671875	-100.6526260375977	930.3642578125	1119.720825195312	-113.5223236083984	878.1808471679688	1105.481079101562	-43.19214630126953	1055.255615234375	898.6102905273438	-66.85550689697266	977.4442749023438	869.2457885742188	-111.0757904052734	952.8981323242188	1010.030822753906	-122.6498413085938	1082.348999023438	713.0428466796875	-38.42148971557617	1003.22216796875	801.499267578125	-102.8507614135742	1072.633544921875	820.8005981445312	-83.43948364257812	944.0538940429688	1493.766235351562	329.7275085449219	929.0707397460938	1426.98046875	400.2774047851562	926.7030029296875	1138.771850585938	455.0701599121094	919.9200439453125	1128.91259765625	358.8422241210938	1068.103515625	914.4188842773438	431.8759460449219	999.3770141601562	897.8262939453125	486.680908203125	954.5027465820312	1067.956420898438	473.3984375	1082.956176757812	730.921875	407.1103820800781	1098.471801757812	823.3505859375	440.6509094238281	1029.599975585938	815.033203125	483.0933837890625	950.751708984375	1686.097412109375	220.3390197753906	1080.976196289062	1713.65234375	48.39080047607422	1114.282592773438	1722.79833984375	172.982666015625	907.3526000976562	1684.645263671875	89.76964569091797	967.6006469726562	986.2359008789062	-7.785747051239014	1012.847717285156	1012.403381347656	352.1543884277344	1092.503295898438	1039.668823242188	295.3619384765625	1082.933471679688	1030.351318359375	35.99997711181641	967.3652954101562	492.3912048339844	24.10568237304688	975.7704467773438	635.05712890625	-4.765894412994385	855.256591796875	40.82035827636719	23.34982299804688	914.3285522460938	271.6098937988281	10.52974987030029	1076.071411132812	36.33511734008789	22.02404403686523	1031.534912109375	36.98641586303711	75.76892852783203	958.2163696289062	32.98032760620117	-28.65080451965332	812.8401489257812	40.16932678222656	98.26924896240234	997.9312744140625	513.90380859375	339.5638427734375	1058.516723632812	780.7647705078125	362.5029602050781	876.8338012695312	37.94329833984375	352.5139465332031	996.5416259765625	394.6746520996094	322.2514953613281	1099.7451171875	39.32432174682617	310.5409851074219	1041.4931640625	37.04894638061523	267.5855102539062	990.4874877929688	34.2230339050293	384.9383544921875	822.3975219726562	37.33688735961914	286.5323486328125	
2	0.01	853.1915283203125	1050.034912109375	232.5791320800781	853.8450317382812	1047.347045898438	108.3527297973633	854.6275634765625	1086.438110351562	172.4040069580078	1105.9501953125	1300.628784179688	155.4820251464844	817.3265991210938	1239.340209960938	168.1027526855469	869.1511840820312	1512.488891601562	150.7020874023438	1073.000854492188	1412.52978515625	146.1879119873047	815.3501586914062	1335.664672851562	264.5488891601562	858.45263671875	1485.453735351562	51.27862548828125	931.5914306640625	1473.886108398438	-31.10946273803711	901.2948608398438	1338.458984375	-100.5529327392578	930.1317749023438	1119.67822265625	-113.4181976318359	877.9651489257812	1105.432006835938	-43.04509353637695	1054.760864257812	898.414794921875	-66.82126617431641	976.9668579101562	869.1610107421875	-110.9917831420898	952.5478515625	1009.983764648438	-122.5770568847656	1081.699829101562	712.83349609375	-38.48373794555664	1002.69970703125	801.4296875	-102.8490219116211	1072.105224609375	820.6924438476562	-83.46992492675781	944.0292358398438	1493.813842773438	329.7630310058594	929.0885620117188	1427.02880859375	400.3380432128906	926.8348388671875	1138.83544921875	455.2307739257812	919.9573364257812	1128.953979492188	359.0022583007812	1068.373168945312	914.41943359375	432.2133178710938	999.7351684570312	897.9183959960938	486.8249816894531	954.6531372070312	1068.019653320312	473.5440063476562	1083.763061523438	731.1270141601562	407.2813415527344	1098.898803710938	823.38525390625	440.9810791015625	1030.051147460938	815.1655883789062	483.1598510742188	950.694091796875	1686.164306640625	220.3176727294922	1080.798461914062	1713.59033203125	48.2916145324707	1114.195434570312	1722.803344726562	172.8590087890625	907.20263671875	1684.622802734375	89.78250885009766	966.236083984375	986.3907470703125	-7.988688945770264	1012.83544921875	1012.409423828125	352.2333679199219	1092.454223632812	1039.67578125	295.39599609375	1082.837036132812	1030.4345703125	35.93904495239258	967.1433715820312	492.4299011230469	24.1223201751709	975.5858764648438	635.1033325195312	-4.784402370452881	855.2431640625	40.81069183349609	23.34300804138184	914.2509155273438	271.6223449707031	10.58642768859863	1076.059692382812	36.34633255004883	22.02030372619629	1031.528076171875	37.00887298583984	75.76295471191406	958.2101440429688	32.96855545043945	-28.6649284362793	812.8369140625	40.13378143310547	98.260498046875	997.9125366210938	513.9076538085938	339.6052856445312	1058.428100585938	780.7479248046875	362.5256652832031	876.8279418945312	37.93785858154297	352.5122680664062	996.4990234375	394.6850280761719	322.2855834960938	1099.7421875	39.33075332641602	310.542236328125	1041.48291015625	37.05250930786133	267.5806884765625	990.4910278320312	34.22622680664062	384.9380493164062	822.3922729492188	37.33450698852539	286.5395812988281	
3	0.02	853.225830078125	1050.033081054688	232.6783447265625	853.6769409179688	1047.366088867188	108.5587005615234	854.2887573242188	1086.670532226562	172.5741882324219	1105.814575195312	1300.643188476562	155.4859008789062	817.1986083984375	1239.321044921875	168.2990264892578	869.0653076171875	1512.51220703125	150.7335052490234	1072.878662109375	1412.525268554688	146.1929016113281	815.276611328125	1335.7119140625	264.6601867675781	858.26025390625	1485.407592773438	51.38941955566406	931.3645629882812	1473.864379882812	-31.0771427154541	901.0584716796875	1338.39111328125	-100.432502746582	929.8372192382812	1119.631958007812	-113.3000946044922	877.6905517578125	1105.383178710938	-42.86697769165039	1054.1474609375	898.1751708984375	-66.79355621337891	976.364501953125	869.06689453125	-110.9212646484375	952.0899658203125	1009.9287109375	-122.4849472045898	1080.87353515625	712.5734252929688	-38.56221008300781	1002.013671875	801.325439453125	-102.8439483642578	1071.42138671875	820.5275268554688	-83.50605773925781	943.995361328125	1493.872314453125	329.8071594238281	929.0999145507812	1427.0869140625	400.4121398925781	927.0045776367188	1138.907104492188	455.4279174804688	920.0072021484375	1128.995971679688	359.19873046875	1068.7578125	914.48583984375	432.5683898925781	1000.207824707031	898.0343017578125	486.993408203125	954.8509521484375	1068.095581054688	473.7228393554688	1084.792236328125	731.3966674804688	407.4609985351562	1099.470336914062	823.4735107421875	441.3318786621094	1030.648315429688	815.3348999023438	483.2309875488281	950.6190185546875	1686.248413085938	220.2920074462891	1080.579467773438	1713.518920898438	48.16886901855469	1114.0791015625	1722.810668945312	172.7031402587891	907.0122680664062	1684.596435546875	89.79815673828125	964.6102294921875	986.5770263671875	-8.222856521606445	1012.815368652344	1012.418395996094	352.3304443359375	1092.382690429688	1039.683349609375	295.4402770996094	1082.711547851562	1030.52197265625	35.87503433227539	966.8574829101562	492.4734497070312	24.14596748352051	975.3412475585938	635.158447265625	-4.80271577835083	855.2243041992188	40.79664993286133	23.33501052856445	914.14208984375	271.6399536132812	10.65998077392578	1076.043334960938	36.36489868164062	22.01467895507812	1031.516723632812	37.03313446044922	75.75603485107422	958.2013549804688	32.95677185058594	-28.67907905578613	812.8311157226562	40.08455276489258	98.24866485595703	997.885009765625	513.9125366210938	339.6615600585938	1058.327758789062	780.7208251953125	362.5599060058594	876.8196411132812	37.92963790893555	352.5091857910156	996.446044921875	394.6963500976562	322.3338317871094	1099.7392578125	39.3371696472168	310.5429382324219	1041.471801757812	37.05523681640625	267.5756530761719	990.494384765625	34.22855377197266	384.9378662109375	822.3858642578125	37.33061599731445	286.5484008789062	
4	0.03	853.2438354492188	1050.032104492188	232.7896270751953	853.4874267578125	1047.389282226562	108.7810592651367	853.9610595703125	1086.8525390625	172.7687377929688	1105.661499023438	1300.65771484375	155.4979400634766	817.0447998046875	1239.312255859375	168.513671875	868.9635009765625	1512.5380859375	150.7687683105469	1072.73095703125	1412.519897460938	146.2008819580078	815.1885986328125	1335.765991210938	264.7774963378906	858.0490112304688	1485.359252929688	51.51058959960938	931.1152954101562	1473.836547851562	-31.03547286987305	900.7948608398438	1338.31591796875	-100.2996444702148	929.4921875	1119.587524414062	-113.1789321899414	877.3648681640625	1105.343627929688	-42.67087554931641	1053.441040039062	897.9026489257812	-66.78002166748047	975.6599731445312	868.97265625	-110.8814392089844	951.539794921875	1009.870361328125	-122.3797149658203	1079.89599609375	712.2736206054688	-38.65519332885742	1001.177978515625	801.1838989257812	-102.8363189697266	1070.601440429688	820.3001708984375	-83.54723358154297	943.9525756835938	1493.93798828125	329.858154296875	929.099609375	1427.151245117188	400.495361328125	927.2066650390625	1138.98046875	455.6510620117188	920.06982421875	1129.033325195312	359.4220886230469	1069.257202148438	914.6338500976562	432.9017639160156	1000.787475585938	898.169677734375	487.1731567382812	955.09375	1068.17919921875	473.9248352050781	1086.007446289062	731.7255249023438	407.6260986328125	1100.179565429688	823.6315307617188	441.6600341796875	1031.382690429688	815.5363159179688	483.2976379394531	950.5281372070312	1686.345703125	220.2638092041016	1080.33056640625	1713.443481445312	48.0284309387207	1113.935180664062	1722.8203125	172.5224456787109	906.7890625	1684.567993164062	89.81525421142578	962.875244140625	986.7782592773438	-8.456070899963379	1012.785583496094	1012.430419921875	352.4415893554688	1092.287231445312	1039.691040039062	295.4940185546875	1082.557250976562	1030.60107421875	35.81858444213867	966.5158081054688	492.5169067382812	24.17831802368164	975.0400390625	635.2167358398438	-4.815453052520752	855.200439453125	40.77854919433594	23.32638168334961	914	271.6631469726562	10.74770069122314	1076.021850585938	36.39059829711914	22.00769424438477	1031.500610351562	37.05738830566406	75.74776458740234	958.1900024414062	32.94614791870117	-28.69170188903809	812.8222045898438	40.02111434936523	98.23400115966797	997.8480224609375	513.9180908203125	339.7322692871094	1058.22021484375	780.6893310546875	362.6079406738281	876.8093872070312	37.91902160644531	352.5048828125	996.3845825195312	394.7077331542969	322.3957214355469	1099.735961914062	39.34318923950195	310.54296875	1041.460815429688	37.05620574951172	267.5707702636719	990.49658203125	34.22936630249023	384.9382019042969	822.3786010742188	37.32547378540039	286.5580749511719	
